<!-- <svg height="50px" id="Layer_1" style="enable-background:new 0 0 67 67;" version="1.1" viewBox="0 0 67 67" width="50px" xml:space="preserve" xmlns="http://www.w3.org/2000/svg" xmlns:xlink="http://www.w3.org/1999/xlink">
	<path d="M42.271,26.578v-0.006c0.502,0,1.005,0.01,1.508-0.002  c0.646-0.017,1.172-0.57,1.172-1.217c0-0.963,0-1.927,0-2.89c0-0.691-0.547-1.24-1.236-1.241c-0.961,0-1.922-0.001-2.883,0  c-0.688,0.001-1.236,0.552-1.236,1.243c-0.001,0.955-0.004,1.91,0.003,2.865c0.001,0.143,0.028,0.291,0.073,0.426  c0.173,0.508,0.639,0.82,1.209,0.823C41.344,26.579,41.808,26.578,42.271,26.578z M33,27.817c-3.384-0.002-6.135,2.721-6.182,6.089  c-0.049,3.46,2.72,6.201,6.04,6.272c3.454,0.074,6.248-2.686,6.321-6.043C39.254,30.675,36.462,27.815,33,27.817z M21.046,31.116  v0.082c0,4.515-0.001,9.03,0,13.545c0,0.649,0.562,1.208,1.212,1.208c7.16,0.001,14.319,0.001,21.479,0  c0.656,0,1.215-0.557,1.215-1.212c0.001-4.509,0-9.02,0-13.528v-0.094h-2.912c0.411,1.313,0.537,2.651,0.376,4.014  c-0.161,1.363-0.601,2.631-1.316,3.803s-1.644,2.145-2.779,2.918c-2.944,2.006-6.821,2.182-9.946,0.428  c-1.579-0.885-2.819-2.12-3.685-3.713c-1.289-2.373-1.495-4.865-0.739-7.451C22.983,31.116,22.021,31.116,21.046,31.116z   M45.205,49.255c0.159-0.026,0.318-0.049,0.475-0.083c1.246-0.265,2.264-1.304,2.508-2.557c0.025-0.137,0.045-0.273,0.067-0.409  V21.794c-0.021-0.133-0.04-0.268-0.065-0.401c-0.268-1.367-1.396-2.428-2.78-2.618c-0.058-0.007-0.113-0.02-0.17-0.03H20.761  c-0.147,0.027-0.296,0.047-0.441,0.08c-1.352,0.308-2.352,1.396-2.545,2.766c-0.008,0.057-0.02,0.114-0.029,0.171V46.24  c0.028,0.154,0.05,0.311,0.085,0.465c0.299,1.322,1.427,2.347,2.77,2.52c0.064,0.008,0.13,0.021,0.195,0.03H45.205z M33,64  C16.432,64,3,50.569,3,34S16.432,4,33,4s30,13.431,30,30S49.568,64,33,64z" style="fill-rule:evenodd;clip-rule:evenodd;fill:#598DCA;" />
</svg> -->

<svg enable-background="new 0 0 136.367 135.463" height="50px" id="Layer_1" version="1.1" viewBox="0 0 136.367 135.463" width="50px" xml:space="preserve" xmlns="http://www.w3.org/2000/svg" xmlns:xlink="http://www.w3.org/1999/xlink">
	<g>
		<circle cx="68.184" cy="67.731" fill="#527FA3" r="63.333" />
		<path d="M112.966,22.946c24.734,24.734,24.735,64.834,0,89.568c-24.732,24.732-64.834,24.733-89.567,0   L112.966,22.946z" fill="#477493" />
		<g>
			<path d="M131.235,73.603L96.45,38.817l-2.311,2.311l-4.535-4.536l-4.188,4.188l-3.813-3.813l-14.939,14.94    L50.763,36.005l-1.551,1.551l1.125,1.125l-0.699,0.699l-3.25-3.25l-1.613,1.613l1.5,1.5l-1.449,1.449l-2.813-2.813l-3.363,3.363    l3.063,3.063l-3.063,3.063l1.063,1.063l-1.063,1.063l2.563,2.563l-5.188,5.188l12.652,12.652l-2.647,2.646l8.349,8.348    L38.899,96.368l34.469,34.469C103.979,128.354,128.429,104.118,131.235,73.603z" fill="#416B82" />
		</g>
		<g>
			<g>
				<path d="M100.718,59.183c-6.153,0-12.309,0-18.462,0c7.205,11.871-1.047,27.49-15.938,26.037     c-9.097-0.887-17.42-10.664-13.729-21.776c0.232-0.703,0.727-1.47,1.104-2.209c0.358-0.703,0.962-1.527,0.789-2.052     c-6.05,0-18.305,0-18.305,0v30.456c0.614,5.957,5.299,10.639,11.361,11.203h20.987h20.988     c6.073-0.626,10.602-5.681,11.203-11.045C100.718,89.797,100.718,64.47,100.718,59.183z" fill="#FFFFFF" />
				<g>
					<path d="M66.792,56.185c-2.48,0.298-3.813,0.834-5.051,1.578c-2.843,1.707-5.518,4.89-5.996,9.152      c-0.967,8.604,5.345,14.518,12.624,14.518c5.799,0,12.854-4.143,12.782-12.781C81.085,60.785,74.809,55.221,66.792,56.185z       M77.68,71.175c-1.057,4.354-5.889,7.647-10.888,6.943c-4.779-0.672-9.915-6.611-7.103-13.254      c1.036-2.445,3.372-5.188,8.206-5.523C73.833,58.929,79.362,64.235,77.68,71.175z" fill="#FFFFFF" />
				</g>
			</g>
			<g>
				<path d="M97.089,39.615c-1.74-1.74-4.588-3.336-7.732-3.629H68.433h-0.058H53.382v16.413h-2.683V35.986h-1.656     v16.413h-2.685V36.143c-0.594,0.113-1.176,0.269-1.735,0.462v15.795H41.94V37.88c-0.854,0.527-1.607,1.122-2.222,1.735     c-3.568,3.569-3.855,9.705-3.629,17.517h20.041c0.813-0.189,1.789-1.193,2.525-1.736c2.7-1.988,6.173-3.073,9.698-3.111h0.1     c3.525,0.038,6.999,1.123,9.698,3.111c0.737,0.543,1.711,1.547,2.524,1.736h20.041C100.808,49.242,100.659,43.185,97.089,39.615z      M94.337,50.261c0,0.92-0.745,1.665-1.663,1.665h-6.933c-0.918,0-1.663-0.745-1.663-1.665V43.33c0-0.919,0.745-1.663,1.663-1.663     h6.933c0.918,0,1.663,0.744,1.663,1.663V50.261z" fill="#FFFFFF" />
			</g>
		</g>
	</g>
</svg>

