<svg enable-background="new 0 0 133 132.118" height="50px" id="Layer_1" version="1.1" viewBox="0 0 133 132.118" width="50px" xml:space="preserve" xmlns="http://www.w3.org/2000/svg" xmlns:xlink="http://www.w3.org/1999/xlink"><g><g><g><g><circle cx="66.5" cy="66.06" fill="#1D93D1" r="63.333"/></g></g></g><g><g><path d="M111.284,21.021c24.732,24.732,24.733,64.832-0.001,89.566c-24.733,24.733-64.834,24.733-89.566,0     L111.284,21.021z" fill="#1C8ABA"/></g><g><path d="M128.083,80.831L90.118,42.866l-7.526,7.527L64,35.804L34.875,64.929l12.882,20.299l-5.027,5.027     l37.604,37.604C103.887,122.608,122.484,104.251,128.083,80.831z" fill="#1E88AD"/></g><g><path d="M123.586,93.52L69.602,39.535l-8.769,2.269L49.5,47.137l-4.751,15.417l-0.31,13.144l48.094,48.094     C106.103,117.662,117.134,106.908,123.586,93.52z" fill="#1E84A0"/></g></g><path d="M99.919,72.328c0.269-1.7,0.41-3.439,0.41-5.214c0-18.449-14.956-33.405-33.406-33.405   c-1.771,0-3.514,0.146-5.212,0.41c-3.077-1.902-6.708-3.003-10.6-3.003c-11.148,0-20.187,9.036-20.187,20.185   c0,3.891,1.103,7.519,3.005,10.602c-0.263,1.703-0.408,3.435-0.408,5.211c0,18.45,14.956,33.401,33.401,33.401   c1.772,0,3.516-0.136,5.214-0.405c3.08,1.9,6.709,3.005,10.601,3.005c11.15,0,20.188-9.04,20.188-20.189   C102.925,79.036,101.823,75.408,99.919,72.328z M82.783,82.307c-1.413,2.034-3.488,3.625-6.202,4.768   c-2.718,1.145-5.93,1.714-9.639,1.714c-4.447,0-8.129-0.777-11.034-2.347c-2.06-1.125-3.734-2.635-5.023-4.517   c-1.29-1.883-1.944-3.728-1.944-5.526c0-1.061,0.404-1.984,1.192-2.736c0.796-0.757,1.821-1.138,3.03-1.138   c0.991,0,1.842,0.299,2.535,0.891c0.688,0.591,1.265,1.45,1.737,2.584c0.565,1.314,1.18,2.413,1.834,3.289   c0.649,0.866,1.563,1.588,2.748,2.155c1.172,0.568,2.729,0.85,4.68,0.85c2.669,0,4.826-0.576,6.477-1.716   c1.659-1.148,2.457-2.547,2.457-4.237c0-1.347-0.43-2.419-1.311-3.253c-0.889-0.844-2.037-1.489-3.463-1.937   c-1.43-0.454-3.351-0.935-5.758-1.442c-3.231-0.704-5.936-1.526-8.124-2.469c-2.192-0.946-3.938-2.24-5.231-3.875   c-1.296-1.649-1.943-3.701-1.943-6.131c0-2.317,0.682-4.389,2.049-6.192c1.366-1.808,3.342-3.192,5.918-4.157   c2.567-0.964,5.59-1.445,9.052-1.445c2.769,0,5.163,0.32,7.191,0.958c2.022,0.642,3.707,1.489,5.055,2.553   c1.34,1.06,2.324,2.18,2.948,3.354c0.623,1.178,0.938,2.328,0.938,3.45c0,1.044-0.404,1.99-1.192,2.821   c-0.788,0.831-1.796,1.255-2.974,1.25c-1.062,0-1.895-0.243-2.472-0.763c-0.563-0.501-1.153-1.3-1.792-2.412   c-0.808-1.554-1.775-2.763-2.9-3.628c-1.095-0.848-2.901-1.292-5.416-1.286c-2.326,0-4.188,0.475-5.593,1.404   c-1.413,0.945-2.09,2.041-2.093,3.326c0.003,0.805,0.233,1.483,0.699,2.063c0.473,0.586,1.13,1.092,1.976,1.521   c0.846,0.434,1.706,0.77,2.571,1.011c0.874,0.247,2.324,0.606,4.342,1.08c2.529,0.545,4.825,1.155,6.887,1.819   c2.058,0.667,3.813,1.471,5.265,2.431c1.463,0.956,2.606,2.174,3.421,3.646c0.821,1.474,1.23,3.275,1.23,5.394   C84.91,77.981,84.199,80.275,82.783,82.307z" fill="#FFFFFF" id="Skype_2_"/></g></svg>