<!-- <svg height="50" id="Layer_1" style="enable-background:new 0 0 67 67;" version="1.1" viewBox="0 0 67 67" width="50" xml:space="preserve" xmlns="http://www.w3.org/2000/svg" xmlns:xlink="http://www.w3.org/1999/xlink">
	<path d="M38.167,22.283c-2.619,0.953-4.274,3.411-4.086,6.101  l0.063,1.038l-1.048-0.127c-3.813-0.487-7.145-2.139-9.974-4.915l-1.383-1.377l-0.356,1.017c-0.754,2.267-0.272,4.661,1.299,6.271  c0.838,0.89,0.649,1.017-0.796,0.487c-0.503-0.169-0.943-0.296-0.985-0.233c-0.146,0.149,0.356,2.076,0.754,2.839  c0.545,1.06,1.655,2.097,2.871,2.712l1.027,0.487l-1.215,0.021c-1.173,0-1.215,0.021-1.089,0.467  c0.419,1.377,2.074,2.839,3.918,3.475l1.299,0.444l-1.131,0.678c-1.676,0.976-3.646,1.526-5.616,1.567  C20.775,43.256,20,43.341,20,43.405c0,0.211,2.557,1.397,4.044,1.864c4.463,1.377,9.765,0.783,13.746-1.568  c2.829-1.674,5.657-5,6.978-8.221c0.713-1.715,1.425-4.851,1.425-6.354c0-0.975,0.063-1.102,1.236-2.267  c0.692-0.678,1.341-1.419,1.467-1.631c0.21-0.403,0.188-0.403-0.88-0.043c-1.781,0.636-2.033,0.551-1.152-0.402  c0.649-0.678,1.425-1.907,1.425-2.267c0-0.063-0.314,0.042-0.671,0.233c-0.377,0.212-1.215,0.53-1.844,0.72l-1.131,0.361l-1.027-0.7  c-0.566-0.381-1.361-0.805-1.781-0.932C40.766,21.902,39.131,21.944,38.167,22.283z M34,64C17.432,64,4,50.568,4,34  C4,17.431,17.432,4,34,4s30,13.431,30,30C64,50.568,50.568,64,34,64z" style="fill-rule:evenodd;clip-rule:evenodd;fill:#598DCA;" />
</svg> -->


<svg enable-background="new 0 0 133.5 132.615" height="50px" id="Layer_1" version="1.1" viewBox="0 0 133.5 132.615" width="50px" xml:space="preserve" xmlns="http://www.w3.org/2000/svg" xmlns:xlink="http://www.w3.org/1999/xlink">
	<g>
		<g>
			<g>
				<g>
					<circle cx="66.753" cy="66.456" fill="#16B4CA" r="63.335" />
				</g>
			</g>
			<g>
				<g>
					<path d="M111.539,21.671c24.733,24.733,24.735,64.833-0.001,89.569c-24.733,24.734-64.836,24.734-89.568,0.001      L111.539,21.671z" fill="#13ACB7" />
				</g>
			</g>
			<g>
				<path d="M129.513,74.894l-17.117-17.117l-1.411,1.41L89.422,37.624l-1.118,1.117l-2.588-2.588l-3.162,3.163     l-2.562-2.561l-4.121,4.12l5.029,5.029L61.589,65.215l-18.82-18.818l-4.12,4.119l5.424,5.423l-3.817,3.816l6.227,6.227     l-2.745,2.746l7.586,7.586l-1.238,1.24l6.963,6.964l-8.179,8.18l-6.093-6.092l-5.885,5.885l-7.302-7.302l-1.468,1.468     l42.971,42.971C101.229,127.586,125.571,104.473,129.513,74.894z" fill="#10A2A5" />
			</g>
		</g>
		<path d="M102.431,63.729c5.062-0.417,8.494-2.718,9.816-5.84   c-1.827,1.122-7.495,2.344-10.625,1.179c-0.153-0.735-0.324-1.434-0.492-2.064c-2.385-8.758-10.551-15.813-19.107-14.962   c0.692-0.279,1.396-0.54,2.095-0.774c0.941-0.337,6.467-1.237,5.598-3.187c-0.734-1.715-7.485,1.296-8.756,1.69   c1.678-0.63,4.453-1.716,4.749-3.644c-2.571,0.352-5.094,1.568-7.043,3.335c0.703-0.758,1.237-1.681,1.351-2.676   C73.156,41.168,69.15,50,65.91,58.567c-2.545-2.466-4.801-4.41-6.826-5.488c-5.677-3.045-12.465-6.222-23.121-10.178   c-0.327,3.526,1.743,8.214,7.709,11.332c-1.293-0.173-3.654,0.213-5.547,0.666c0.771,4.039,3.284,7.367,10.095,8.976   c-3.112,0.205-4.72,0.913-6.177,2.438c1.415,2.809,4.874,6.116,11.092,5.436c-6.913,2.98-2.817,8.501,2.81,7.678   c-9.6,9.916-24.736,9.188-33.427,0.895c22.692,30.921,72.021,18.286,79.369-11.497c5.508,0.046,8.746-1.908,10.753-4.062   C109.468,65.301,104.869,64.745,102.431,63.729z" fill="#FFFFFF" id="Twitter__x28_alt_x29__1_" />
	</g>
</svg>
