<!-- <svg class="material-icons" xmlns="http://www.w3.org/2000/svg" width="50" height="50" viewBox="0 0 67 67">
	<path d="M29.765,50.32h6.744V33.998h4.499l0.596-5.624h-5.095  l0.007-2.816c0-1.466,0.14-2.253,2.244-2.253h2.812V17.68h-4.5c-5.405,0-7.307,2.729-7.307,7.317v3.377h-3.369v5.625h3.369V50.32z   M34,64C17.432,64,4,50.568,4,34C4,17.431,17.432,4,34,4s30,13.431,30,30C64,50.568,50.568,64,34,64z" fill="#3A589B" />
</svg> -->
<svg enable-background="new 0 0 133.252 132.369" height="50px" id="Layer_1" version="1.1" viewBox="0 0 133.252 132.369" width="50px" xml:space="preserve" xmlns="http://www.w3.org/2000/svg" xmlns:xlink="http://www.w3.org/1999/xlink">
	<g>
		<g>
			<g>
				<g>
					<circle cx="66.626" cy="66.185" fill="#3B5999" r="63.333" />
				</g>
			</g>
		</g>
		<g>
			<g>
				<path d="M111.429,21.496c24.732,24.732,24.733,64.832-0.001,89.566c-24.733,24.733-64.834,24.733-89.566,0     L111.429,21.496z" fill="#355388" />
			</g>
		</g>
		<g>
			<path d="M129.549,73.317L83.737,27.505L59.953,51.29l1.417,1.417L47.828,66.248l11.084,11.083l-1.458,1.458l12,12    L55.62,104.623l23.633,23.633C105.902,122.863,126.474,100.737,129.549,73.317z" fill="#2E4E73" />
		</g>
		<path d="M55.557,42.658c0,1.943,0,10.62,0,10.62h-7.781v12.988h7.781v38.593h15.984V66.267h10.726   c0,0,1.005-6.228,1.491-13.036c-1.396,0-12.156,0-12.156,0s0-7.558,0-8.881c0-1.326,1.742-3.112,3.465-3.112   c1.72,0,5.349,0,8.709,0c0-1.769,0-7.878,0-13.521c-4.486,0-9.59,0-11.841,0C55.161,27.717,55.557,40.716,55.557,42.658z" fill="#FFFFFF" id="Facebook_3_" />
	</g>
</svg>
